<?xml version="1.0" standalone="no"?>
<!DOCTYPE svg PUBLIC "-//W3C//DTD SVG 20010904//EN"
 "http://www.w3.org/TR/2001/REC-SVG-20010904/DTD/svg10.dtd">
<svg version="1.0" xmlns="http://www.w3.org/2000/svg"
 width="512.000000pt" height="512.000000pt" viewBox="0 0 512.000000 512.000000"
 preserveAspectRatio="xMidYMid meet">
<metadata>
Created by potrace 1.14, written by Peter Selinger 2001-2017
</metadata>
<g transform="translate(0.000000,512.000000) scale(0.100000,-0.100000)"
fill="#000000" stroke="none">
<path d="M2528 4695 c-2 -2 -50 -5 -108 -9 -187 -10 -339 -40 -529 -102 -543
-178 -996 -574 -1246 -1089 -120 -247 -177 -450 -210 -748 -7 -63 -8 -350 -1
-383 2 -11 7 -47 10 -80 4 -32 9 -68 11 -79 3 -11 7 -31 9 -45 58 -316 220
-668 424 -925 76 -96 233 -256 312 -318 36 -28 67 -54 70 -58 3 -3 55 -39 115
-79 264 -174 625 -308 905 -335 30 -3 67 -8 82 -11 34 -7 317 -6 373 0 22 3
63 7 90 10 28 3 75 11 105 16 30 6 66 13 80 16 208 40 507 168 720 309 164
108 359 283 465 415 86 109 235 332 235 353 0 5 8 21 18 35 26 37 104 228 137
332 33 108 72 286 80 370 4 36 9 72 11 80 6 18 6 357 0 386 -2 12 -7 45 -11
75 -5 51 -8 69 -20 129 -3 14 -8 41 -11 60 -10 58 -73 259 -111 350 -70 171
-176 354 -292 505 -50 65 -259 279 -331 339 -91 75 -283 197 -412 260 -241
118 -518 194 -768 211 -118 8 -200 12 -202 10z m220 -439 c23 -3 61 -9 85 -12
72 -10 205 -44 295 -76 143 -50 260 -110 426 -220 81 -54 222 -185 306 -283
262 -309 404 -699 404 -1105 0 -138 -12 -260 -35 -355 -5 -22 -12 -53 -15 -69
-16 -82 -114 -324 -171 -421 -63 -106 -119 -187 -178 -254 -345 -399 -820
-614 -1333 -605 -266 5 -482 56 -721 172 -85 41 -291 171 -324 204 -7 7 -40
36 -72 63 -82 71 -197 204 -271 316 -270 405 -356 896 -238 1361 60 239 160
443 313 643 62 81 212 231 286 286 33 24 62 47 65 50 9 11 205 125 261 151
128 61 278 110 409 134 14 3 32 7 40 9 8 2 51 7 95 11 44 3 81 7 83 9 5 4 247
-3 290 -9z"/>
<path d="M3528 3581 c-42 -20 -119 -57 -170 -81 -51 -24 -140 -65 -198 -93
-58 -27 -132 -62 -165 -77 -33 -16 -114 -54 -180 -85 -66 -32 -147 -70 -180
-85 -33 -15 -103 -48 -155 -73 -52 -25 -143 -68 -203 -95 -77 -37 -110 -58
-116 -74 -5 -13 -34 -77 -65 -142 -31 -65 -56 -120 -56 -122 0 -1 -31 -67 -69
-146 -38 -79 -82 -172 -99 -208 -60 -128 -190 -407 -235 -500 -102 -217 -137
-293 -133 -297 2 -2 46 16 97 40 214 102 352 167 354 167 1 0 69 32 151 71
164 78 263 125 369 174 91 43 245 115 369 173 l99 47 57 120 c63 133 98 208
202 430 66 141 125 266 203 430 18 39 50 106 71 150 20 44 61 131 90 194 30
62 54 115 54 117 0 8 -17 1 -92 -35z m-882 -851 c24 -12 54 -39 70 -62 25 -35
29 -51 29 -108 0 -57 -4 -73 -29 -108 -99 -143 -327 -85 -344 87 -14 153 136
258 274 191z"/>
</g>
</svg>
