<svg width="25" height="25" viewBox="0 0 25 25" fill="none" xmlns="http://www.w3.org/2000/svg">
<path d="M4.44333 4.57531C4.58124 4.43477 4.7455 4.3228 4.92672 4.2458C5.10794 4.1688 5.30256 4.12828 5.49945 4.12656C5.69634 4.12484 5.89164 4.16196 6.07418 4.23578C6.25672 4.30961 6.42291 4.4187 6.56325 4.5568L12.0505 9.94713L17.4428 4.46186C17.5808 4.32145 17.7451 4.20959 17.9263 4.13267C18.1075 4.05575 18.3021 4.01528 18.499 4.01356C18.6958 4.01184 18.8911 4.04891 19.0736 4.12266C19.2561 4.1964 19.4223 4.30538 19.5628 4.44336C19.7032 4.58134 19.815 4.74563 19.8919 4.92684C19.9689 5.10805 20.0093 5.30264 20.0111 5.49949C20.0128 5.69634 19.9757 5.8916 19.902 6.07413C19.8282 6.25666 19.7192 6.42287 19.5813 6.56328L14.1909 12.0505L19.6762 17.4429C19.9598 17.7215 20.121 18.1014 20.1245 18.499C20.128 18.8966 19.9734 19.2792 19.6947 19.5628C19.416 19.8464 19.0361 20.0076 18.6386 20.0111C18.241 20.0146 17.8584 19.8599 17.5748 19.5813L12.0875 14.191L6.69519 19.6762C6.41653 19.9598 6.03663 20.1211 5.63906 20.1245C5.2415 20.128 4.85884 19.9734 4.57527 19.6947C4.2917 19.4161 4.13044 19.0362 4.12697 18.6386C4.1235 18.241 4.27811 17.8584 4.55677 17.5748L9.94709 12.0876L4.46183 6.69522C4.32129 6.55732 4.20932 6.39305 4.13232 6.21183C4.05532 6.03061 4.0148 5.83599 4.01309 5.6391C4.01137 5.44221 4.04848 5.24691 4.12231 5.06437C4.19613 4.88184 4.30522 4.71565 4.44333 4.57531Z" fill="#555555"/>
</svg>
