<svg width="25" height="24" viewBox="0 0 25 24" fill="none" xmlns="http://www.w3.org/2000/svg">
<path d="M1.20853 23L8.24853 8.04L23.2085 1L16.1685 15.96L1.20853 23ZM12.2085 10.02C11.6834 10.02 11.1798 10.2286 10.8085 10.5999C10.4371 10.9713 10.2285 11.4749 10.2285 12C10.2285 12.5251 10.4371 13.0288 10.8085 13.4001C11.1798 13.7714 11.6834 13.98 12.2085 13.98C12.7337 13.98 13.2373 13.7714 13.6086 13.4001C13.9799 13.0288 14.1885 12.5251 14.1885 12C14.1885 11.4749 13.9799 10.9713 13.6086 10.5999C13.2373 10.2286 12.7337 10.02 12.2085 10.02Z" fill="#555555"/>
</svg>
