<svg width="25" height="24" viewBox="0 0 25 24" fill="none" xmlns="http://www.w3.org/2000/svg">
<g clip-path="url(#clip0_325_42)">
<path d="M8.20853 5V7H5.20853V20H19.2085V7H16.2085V5H19.2085C19.739 5 20.2477 5.21071 20.6227 5.58579C20.9978 5.96086 21.2085 6.46957 21.2085 7V20C21.2085 20.5304 20.9978 21.0391 20.6227 21.4142C20.2477 21.7893 19.739 22 19.2085 22H5.20853C4.67809 22 4.16939 21.7893 3.79431 21.4142C3.41924 21.0391 3.20853 20.5304 3.20853 20V7C3.20853 6.46957 3.41924 5.96086 3.79431 5.58579C4.16939 5.21071 4.67809 5 5.20853 5H8.20853ZM12.2085 2C12.4737 2 12.7281 2.10536 12.9156 2.29289C13.1032 2.48043 13.2085 2.73478 13.2085 3V13.828L15.0365 12C15.1294 11.9071 15.2396 11.8334 15.3609 11.7831C15.4823 11.7328 15.6123 11.7068 15.7437 11.7068C15.875 11.7068 16.0051 11.7326 16.1265 11.7828C16.2478 11.833 16.3581 11.9067 16.451 11.9995C16.5439 12.0923 16.6176 12.2026 16.668 12.3239C16.7183 12.4452 16.7442 12.5753 16.7442 12.7066C16.7443 12.838 16.7185 12.9681 16.6682 13.0894C16.618 13.2108 16.5444 13.3211 16.4515 13.414L13.0915 16.773C12.8571 17.0072 12.5394 17.1387 12.208 17.1387C11.8767 17.1387 11.5589 17.0072 11.3245 16.773L7.96553 13.414C7.87268 13.3211 7.79905 13.2108 7.74882 13.0894C7.6986 12.9681 7.67278 12.838 7.67282 12.7066C7.67287 12.5753 7.69879 12.4452 7.7491 12.3239C7.7994 12.2026 7.87312 12.0923 7.96603 11.9995C8.05894 11.9067 8.16922 11.833 8.29059 11.7828C8.41196 11.7326 8.54203 11.7068 8.67338 11.7068C8.80473 11.7068 8.93478 11.7328 9.05611 11.7831C9.17745 11.8334 9.28768 11.9071 9.38053 12L11.2085 13.828V3C11.2085 2.73478 11.3139 2.48043 11.5014 2.29289C11.689 2.10536 11.9433 2 12.2085 2Z" fill="#555555"/>
</g>
<defs>
<clipPath id="clip0_325_42">
<rect width="24" height="24" fill="white" transform="translate(0.208527)"/>
</clipPath>
</defs>
</svg>
