<svg width="25" height="24" viewBox="0 0 25 24" fill="none" xmlns="http://www.w3.org/2000/svg">
<path d="M12.2085 22C13.522 22.0017 14.8228 21.7438 16.0363 21.2412C17.2498 20.7385 18.352 20.001 19.2795 19.071C20.2095 18.1435 20.947 17.0413 21.4496 15.8278C21.9523 14.6143 22.2102 13.3135 22.2085 12C22.2102 10.6865 21.9523 9.3857 21.4496 8.17222C20.947 6.95875 20.2095 5.85656 19.2795 4.92901C18.352 3.99902 17.2498 3.26151 16.0363 2.75885C14.8228 2.25619 13.522 1.99831 12.2085 2.00001C10.895 1.99833 9.59418 2.25623 8.3807 2.75889C7.16723 3.26154 6.06504 3.99904 5.13749 4.92901C4.20753 5.85656 3.47003 6.95875 2.96737 8.17222C2.46472 9.3857 2.20681 10.6865 2.20849 12C2.20679 13.3135 2.46468 14.6143 2.96733 15.8278C3.46999 17.0413 4.2075 18.1435 5.13749 19.071C6.06504 20.001 7.16723 20.7385 8.3807 21.2411C9.59418 21.7438 10.895 22.0017 12.2085 22Z" stroke="#FF5714" stroke-width="2" stroke-linejoin="round"/>
<path d="M7.4856 7.35959C7.5718 7.27175 7.67447 7.20176 7.78775 7.15363C7.90102 7.1055 8.02267 7.08018 8.14574 7.0791C8.26881 7.07803 8.39088 7.10123 8.50497 7.14737C8.61907 7.19352 8.72295 7.2617 8.81067 7.34803L12.2405 10.7173L15.611 7.28868C15.6973 7.20092 15.7999 7.131 15.9132 7.08292C16.0265 7.03484 16.1481 7.00954 16.2712 7.00847C16.3942 7.00739 16.5162 7.03057 16.6303 7.07666C16.7444 7.12276 16.8483 7.19087 16.9361 7.27712C17.0238 7.36336 17.0938 7.46605 17.1418 7.57932C17.1899 7.69258 17.2152 7.81421 17.2163 7.93726C17.2174 8.0603 17.1942 8.18235 17.1481 8.29644C17.102 8.41053 17.0339 8.51442 16.9476 8.60218L13.5784 12.032L17.007 15.4025C17.1842 15.5767 17.285 15.8142 17.2872 16.0627C17.2894 16.3112 17.1927 16.5503 17.0186 16.7276C16.8444 16.9048 16.6069 17.0056 16.3584 17.0078C16.1099 17.01 15.8707 16.9133 15.6935 16.7392L12.2637 13.3699L8.89314 16.7985C8.71896 16.9758 8.4815 17.0766 8.233 17.0787C7.9845 17.0809 7.74532 16.9843 7.56807 16.8101C7.39083 16.6359 7.29003 16.3984 7.28786 16.1499C7.28569 15.9014 7.38233 15.6623 7.55651 15.485L10.9258 12.0552L7.49716 8.68466C7.40932 8.59846 7.33933 8.49578 7.2912 8.38251C7.24308 8.26924 7.21775 8.14759 7.21668 8.02452C7.2156 7.90145 7.2388 7.77938 7.28494 7.66528C7.33109 7.55119 7.39927 7.44731 7.4856 7.35959Z" fill="#FF5714"/>
</svg>
