<svg width="25" height="24" viewBox="0 0 25 24" fill="none" xmlns="http://www.w3.org/2000/svg">
<path d="M12.2085 22C13.522 22.0017 14.8228 21.7438 16.0363 21.2412C17.2498 20.7385 18.352 20.001 19.2795 19.071C20.2095 18.1435 20.947 17.0413 21.4496 15.8278C21.9523 14.6143 22.2102 13.3135 22.2085 12C22.2102 10.6865 21.9523 9.3857 21.4496 8.17222C20.947 6.95875 20.2095 5.85656 19.2795 4.92901C18.352 3.99902 17.2498 3.26151 16.0363 2.75885C14.8228 2.25619 13.522 1.99831 12.2085 2.00001C10.895 1.99833 9.59418 2.25623 8.3807 2.75889C7.16723 3.26154 6.06504 3.99904 5.13749 4.92901C4.20753 5.85656 3.47003 6.95875 2.96737 8.17222C2.46472 9.3857 2.20681 10.6865 2.20849 12C2.20679 13.3135 2.46468 14.6143 2.96733 15.8278C3.46999 17.0413 4.2075 18.1435 5.13749 19.071C6.06504 20.001 7.16723 20.7385 8.3807 21.2411C9.59418 21.7438 10.895 22.0017 12.2085 22Z" stroke="#0FA958" stroke-width="2" stroke-linejoin="round"/>
<path d="M8.2085 12L11.2085 15L17.2085 9" stroke="#0FA958" stroke-width="2" stroke-linecap="round" stroke-linejoin="round"/>
</svg>
