<svg width="14" height="22" viewBox="0 0 14 22" fill="none" xmlns="http://www.w3.org/2000/svg">
<g clip-path="url(#clip0_246_42)">
<path d="M3.73513 6.5C3.73513 4.9832 4.96167 3.75 6.47027 3.75H7.83784C9.34643 3.75 10.573 4.9832 10.573 6.5V6.65469C10.573 7.59141 10.0986 8.46367 9.31652 8.96641L7.51304 10.1309C6.98352 10.4732 6.54795 10.9437 6.24629 11.4992C5.94463 12.0548 5.78653 12.6776 5.78649 13.3105V13.375C5.78649 14.1355 6.39762 14.75 7.15405 14.75C7.91049 14.75 8.52162 14.1355 8.52162 13.375V13.3148C8.52162 12.9625 8.70111 12.6359 8.99172 12.4469L10.7952 11.2824C12.3594 10.2684 13.3081 8.52813 13.3081 6.65469V6.5C13.3081 3.46211 10.8593 1 7.83784 1H6.47027C3.4488 1 1 3.46211 1 6.5C1 7.26055 1.61113 7.875 2.36757 7.875C3.124 7.875 3.73513 7.26055 3.73513 6.5ZM7.15405 20.25C7.60743 20.25 8.04224 20.0689 8.36282 19.7466C8.68341 19.4243 8.86351 18.9871 8.86351 18.5312C8.86351 18.0754 8.68341 17.6382 8.36282 17.3159C8.04224 16.9936 7.60743 16.8125 7.15405 16.8125C6.70068 16.8125 6.26587 16.9936 5.94528 17.3159C5.6247 17.6382 5.44459 18.0754 5.44459 18.5312C5.44459 18.9871 5.6247 19.4243 5.94528 19.7466C6.26587 20.0689 6.70068 20.25 7.15405 20.25Z" fill="#555555"/>
</g>
<defs>
<clipPath id="clip0_246_42">
<rect width="13.6757" height="22" fill="white"/>
</clipPath>
</defs>
</svg>
