<svg width="25" height="25" viewBox="0 0 25 25" fill="none" xmlns="http://www.w3.org/2000/svg">
<path d="M4.47858 5.61058C4.61648 5.47005 4.78075 5.35808 4.96197 5.28108C5.14319 5.20408 5.33781 5.16356 5.5347 5.16184C5.73159 5.16012 5.92689 5.19724 6.10943 5.27106C6.29196 5.34489 6.45815 5.45397 6.59849 5.59208L12.0857 10.9824L17.4781 5.49714C17.6161 5.35673 17.7803 5.24487 17.9616 5.16795C18.1428 5.09103 18.3374 5.05056 18.5342 5.04884C18.7311 5.04712 18.9263 5.08419 19.1088 5.15794C19.2914 5.23168 19.4576 5.34066 19.598 5.47864C19.7384 5.61662 19.8503 5.78091 19.9272 5.96212C20.0041 6.14333 20.0446 6.33791 20.0463 6.53477C20.048 6.73162 20.0109 6.92688 19.9372 7.10941C19.8635 7.29193 19.7545 7.45815 19.6165 7.59856L14.2262 13.0858L19.7114 18.4781C19.995 18.7568 20.1563 19.1367 20.1597 19.5343C20.1632 19.9318 20.0086 20.3145 19.7299 20.5981C19.4513 20.8816 19.0714 21.0429 18.6738 21.0464C18.2763 21.0498 17.8936 20.8952 17.61 20.6166L12.1228 15.2262L6.73044 20.7115C6.45177 20.9951 6.07187 21.1563 5.67431 21.1598C5.27675 21.1633 4.89409 21.0087 4.61052 20.73C4.32695 20.4513 4.16569 20.0714 4.16222 19.6739C4.15875 19.2763 4.31335 18.8937 4.59202 18.6101L9.98234 13.1228L4.49708 7.7305C4.35654 7.59259 4.24457 7.42833 4.16757 7.24711C4.09057 7.06589 4.05005 6.87127 4.04833 6.67438C4.04662 6.47749 4.08373 6.28219 4.15756 6.09965C4.23138 5.91712 4.34047 5.75092 4.47858 5.61058Z" fill="#555555"/>
</svg>
