<svg width="25" height="25" viewBox="0 0 25 25" fill="none" xmlns="http://www.w3.org/2000/svg">
<path d="M4.47858 4.61058C4.61648 4.47005 4.78075 4.35808 4.96197 4.28108C5.14319 4.20408 5.33781 4.16356 5.5347 4.16184C5.73159 4.16012 5.92689 4.19724 6.10943 4.27106C6.29196 4.34489 6.45815 4.45397 6.59849 4.59208L12.0857 9.9824L17.4781 4.49714C17.6161 4.35673 17.7803 4.24487 17.9616 4.16795C18.1428 4.09103 18.3374 4.05056 18.5342 4.04884C18.7311 4.04712 18.9263 4.08419 19.1088 4.15794C19.2914 4.23168 19.4576 4.34066 19.598 4.47864C19.7384 4.61662 19.8503 4.78091 19.9272 4.96212C20.0041 5.14333 20.0446 5.33791 20.0463 5.53477C20.048 5.73162 20.0109 5.92688 19.9372 6.10941C19.8635 6.29193 19.7545 6.45815 19.6165 6.59856L14.2262 12.0858L19.7114 17.4781C19.995 17.7568 20.1563 18.1367 20.1597 18.5343C20.1632 18.9318 20.0086 19.3145 19.7299 19.5981C19.4513 19.8816 19.0714 20.0429 18.6738 20.0464C18.2763 20.0498 17.8936 19.8952 17.61 19.6166L12.1228 14.2262L6.73044 19.7115C6.45177 19.9951 6.07187 20.1563 5.67431 20.1598C5.27675 20.1633 4.89409 20.0087 4.61052 19.73C4.32695 19.4513 4.16569 19.0714 4.16222 18.6739C4.15875 18.2763 4.31335 17.8937 4.59202 17.6101L9.98234 12.1228L4.49708 6.7305C4.35654 6.59259 4.24457 6.42833 4.16757 6.24711C4.09057 6.06589 4.05005 5.87127 4.04833 5.67438C4.04662 5.47749 4.08373 5.28219 4.15756 5.09965C4.23138 4.91712 4.34047 4.75092 4.47858 4.61058Z" fill="#555555"/>
</svg>
