<svg width="25" height="24" viewBox="0 0 25 24" fill="none" xmlns="http://www.w3.org/2000/svg">
<g clip-path="url(#clip0_210_50)">
<path fill-rule="evenodd" clip-rule="evenodd" d="M21.5499 5.43968C21.8311 5.72097 21.9891 6.10243 21.9891 6.50018C21.9891 6.89793 21.8311 7.27939 21.5499 7.56068L10.3069 18.8037C10.1584 18.9523 9.98196 19.0702 9.78781 19.1506C9.59367 19.231 9.38558 19.2724 9.17543 19.2724C8.96529 19.2724 8.7572 19.231 8.56305 19.1506C8.36891 19.0702 8.19251 18.9523 8.04393 18.8037L2.45793 13.2187C2.31467 13.0803 2.20039 12.9148 2.12178 12.7318C2.04317 12.5488 2.00179 12.352 2.00006 12.1528C1.99833 11.9536 2.03628 11.7561 2.1117 11.5717C2.18712 11.3874 2.2985 11.2199 2.43934 11.0791C2.58018 10.9382 2.74766 10.8269 2.932 10.7514C3.11635 10.676 3.31387 10.6381 3.51303 10.6398C3.7122 10.6415 3.90903 10.6829 4.09204 10.7615C4.27505 10.8401 4.44056 10.9544 4.57893 11.0977L9.17493 15.6937L19.4279 5.43968C19.5672 5.30029 19.7326 5.18971 19.9147 5.11427C20.0967 5.03883 20.2919 5 20.4889 5C20.686 5 20.8811 5.03883 21.0632 5.11427C21.2452 5.18971 21.4106 5.30029 21.5499 5.43968Z" fill="#555555"/>
</g>
<defs>
<clipPath id="clip0_210_50">
<rect width="24" height="24" fill="white" transform="translate(0.208527)"/>
</clipPath>
</defs>
</svg>
