<svg width="25" height="24" viewBox="0 0 25 24" fill="none" xmlns="http://www.w3.org/2000/svg">
<g clip-path="url(#clip0_210_50)">
<path fill-rule="evenodd" clip-rule="evenodd" d="M21.7545 5.11094C22.0357 5.39224 22.1937 5.7737 22.1937 6.17144C22.1937 6.56919 22.0357 6.95065 21.7545 7.23194L10.5115 18.4749C10.3629 18.6236 10.1865 18.7414 9.9924 18.8219C9.79826 18.9023 9.59017 18.9437 9.38002 18.9437C9.16988 18.9437 8.96179 18.9023 8.76764 18.8219C8.5735 18.7414 8.3971 18.6236 8.24852 18.4749L2.66252 12.8899C2.51926 12.7516 2.40498 12.5861 2.32637 12.4031C2.24776 12.22 2.20638 12.0232 2.20465 11.824C2.20292 11.6249 2.24087 11.4274 2.31629 11.243C2.39171 11.0587 2.50309 10.8912 2.64393 10.7504C2.78477 10.6095 2.95225 10.4981 3.13659 10.4227C3.32094 10.3473 3.51846 10.3093 3.71762 10.3111C3.91679 10.3128 4.11362 10.3542 4.29663 10.4328C4.47963 10.5114 4.64515 10.6257 4.78352 10.7689L9.37952 15.3649L19.6325 5.11094C19.7718 4.97155 19.9372 4.86098 20.1193 4.78554C20.3013 4.7101 20.4965 4.67126 20.6935 4.67126C20.8906 4.67126 21.0857 4.7101 21.2678 4.78554C21.4498 4.86098 21.6152 4.97155 21.7545 5.11094Z" fill="#555555"/>
</g>
<defs>
<clipPath id="clip0_210_50">
<rect width="24" height="24" fill="white" transform="translate(0.208527)"/>
</clipPath>
</defs>
</svg>
