<svg width="25" height="24" viewBox="0 0 25 24" fill="none" xmlns="http://www.w3.org/2000/svg">
<g clip-path="url(#clip0_210_50)">
<path fill-rule="evenodd" clip-rule="evenodd" d="M21.7545 6.11094C22.0357 6.39224 22.1937 6.7737 22.1937 7.17144C22.1937 7.56919 22.0357 7.95065 21.7545 8.23194L10.5115 19.4749C10.3629 19.6236 10.1865 19.7414 9.9924 19.8219C9.79826 19.9023 9.59017 19.9437 9.38002 19.9437C9.16988 19.9437 8.96179 19.9023 8.76764 19.8219C8.5735 19.7414 8.3971 19.6236 8.24852 19.4749L2.66252 13.8899C2.51926 13.7516 2.40498 13.5861 2.32637 13.4031C2.24776 13.22 2.20638 13.0232 2.20465 12.824C2.20292 12.6249 2.24087 12.4274 2.31629 12.243C2.39171 12.0587 2.50309 11.8912 2.64393 11.7504C2.78477 11.6095 2.95225 11.4981 3.13659 11.4227C3.32094 11.3473 3.51846 11.3093 3.71762 11.3111C3.91679 11.3128 4.11362 11.3542 4.29663 11.4328C4.47964 11.5114 4.64515 11.6257 4.78352 11.7689L9.37952 16.3649L19.6325 6.11094C19.7718 5.97155 19.9372 5.86098 20.1193 5.78554C20.3013 5.7101 20.4965 5.67126 20.6935 5.67126C20.8906 5.67126 21.0857 5.7101 21.2678 5.78554C21.4498 5.86098 21.6152 5.97155 21.7545 6.11094Z" fill="#555555"/>
</g>
<defs>
<clipPath id="clip0_210_50">
<rect width="24" height="24" fill="white" transform="translate(0.208527)"/>
</clipPath>
</defs>
</svg>
