<svg width="22" height="22" viewBox="0 0 22 22" fill="none" xmlns="http://www.w3.org/2000/svg">
<path d="M6.41683 15.584L9.35016 9.35065L15.5835 6.41732L12.6502 12.6507L6.41683 15.584ZM11.0002 10.1757C10.7814 10.1757 10.5715 10.2626 10.4168 10.4173C10.2621 10.572 10.1752 10.7818 10.1752 11.0007C10.1752 11.2195 10.2621 11.4293 10.4168 11.584C10.5715 11.7387 10.7814 11.8257 11.0002 11.8257C11.219 11.8257 11.4288 11.7387 11.5835 11.584C11.7382 11.4293 11.8252 11.2195 11.8252 11.0007C11.8252 10.7818 11.7382 10.572 11.5835 10.4173C11.4288 10.2626 11.219 10.1757 11.0002 10.1757ZM11.0002 1.83398C12.2039 1.83398 13.3959 2.07109 14.5081 2.53176C15.6202 2.99242 16.6308 3.66764 17.482 4.51884C18.3332 5.37004 19.0084 6.38057 19.4691 7.49272C19.9297 8.60487 20.1668 9.79687 20.1668 11.0007C20.1668 13.4318 19.2011 15.7634 17.482 17.4825C15.7629 19.2015 13.4313 20.1673 11.0002 20.1673C9.79638 20.1673 8.60438 19.9302 7.49223 19.4696C6.38008 19.0089 5.36955 18.3337 4.51835 17.4825C2.79927 15.7634 1.8335 13.4318 1.8335 11.0007C1.8335 8.5695 2.79927 6.23792 4.51835 4.51884C6.23743 2.79976 8.56901 1.83398 11.0002 1.83398ZM11.0002 3.66732C9.05524 3.66732 7.18998 4.43994 5.81471 5.8152C4.43945 7.19047 3.66683 9.05573 3.66683 11.0007C3.66683 12.9456 4.43945 14.8108 5.81471 16.1861C7.18998 17.5614 9.05524 18.334 11.0002 18.334C12.9451 18.334 14.8103 17.5614 16.1856 16.1861C17.5609 14.8108 18.3335 12.9456 18.3335 11.0007C18.3335 9.05573 17.5609 7.19047 16.1856 5.8152C14.8103 4.43994 12.9451 3.66732 11.0002 3.66732Z" fill="#3C84F7"/>
</svg>
