<svg width="24" height="24" viewBox="0 0 24 24" fill="none" xmlns="http://www.w3.org/2000/svg">
<path d="M8.41891 6.875C8.41891 5.3582 9.64545 4.125 11.154 4.125H12.5216C14.0302 4.125 15.2567 5.3582 15.2567 6.875V7.02969C15.2567 7.96641 14.7824 8.83867 14.0003 9.34141L12.1968 10.5059C11.6673 10.8482 11.2317 11.3187 10.9301 11.8742C10.6284 12.4298 10.4703 13.0526 10.4703 13.6855V13.75C10.4703 14.5105 11.0814 15.125 11.8378 15.125C12.5943 15.125 13.2054 14.5105 13.2054 13.75V13.6898C13.2054 13.3375 13.3849 13.0109 13.6755 12.8219L15.479 11.6574C17.0431 10.6434 17.9919 8.90313 17.9919 7.02969V6.875C17.9919 3.83711 15.5431 1.375 12.5216 1.375H11.154C8.13258 1.375 5.68378 3.83711 5.68378 6.875C5.68378 7.63555 6.29491 8.25 7.05134 8.25C7.80778 8.25 8.41891 7.63555 8.41891 6.875ZM11.8378 20.625C12.2912 20.625 12.726 20.4439 13.0466 20.1216C13.3672 19.7993 13.5473 19.3621 13.5473 18.9062C13.5473 18.4504 13.3672 18.0132 13.0466 17.6909C12.726 17.3686 12.2912 17.1875 11.8378 17.1875C11.3845 17.1875 10.9496 17.3686 10.6291 17.6909C10.3085 18.0132 10.1284 18.4504 10.1284 18.9062C10.1284 19.3621 10.3085 19.7993 10.6291 20.1216C10.9496 20.4439 11.3845 20.625 11.8378 20.625Z" fill="#555555"/>
</svg>
